<?xml version="1.0" standalone="no"?>
<!DOCTYPE svg PUBLIC "-//W3C//DTD SVG 20010904//EN"
 "http://www.w3.org/TR/2001/REC-SVG-20010904/DTD/svg10.dtd">
<svg version="1.0" xmlns="http://www.w3.org/2000/svg"
 width="512.000000pt" height="512.000000pt" viewBox="0 0 512.000000 512.000000"
 preserveAspectRatio="xMidYMid meet">
<metadata>
Created by potrace 1.14, written by Peter Selinger 2001-2017
</metadata>
<g transform="translate(0.000000,512.000000) scale(0.100000,-0.100000)"
fill="#000000" stroke="none">
<path d="M195 4339 c-98 -13 -163 -36 -182 -65 -27 -41 -7 -169 68 -439 85
-306 160 -461 317 -656 264 -328 683 -532 1075 -524 113 3 146 7 240 35 100
28 257 101 257 119 0 4 -39 42 -87 84 -49 42 -104 90 -123 107 -19 18 -64 57
-100 88 -94 83 -414 365 -494 436 -38 33 -76 67 -85 74 -26 22 9 3 46 -24 17
-13 34 -24 37 -24 2 0 113 -71 245 -157 132 -87 330 -216 440 -288 l200 -130
15 -65 c51 -216 53 -505 5 -810 -14 -92 -17 -98 -50 -115 -51 -27 -102 -79
-125 -129 -13 -27 -21 -53 -18 -58 10 -16 -16 -7 -88 31 -250 134 -496 126
-662 -20 -109 -96 -160 -219 -159 -384 l0 -51 -51 18 c-151 52 -351 -12 -435
-139 -44 -66 -63 -130 -70 -240 -1 -7 -16 -19 -35 -27 -71 -30 -112 -103 -107
-193 l1 -23 1895 0 c1800 0 1894 1 1888 18 -13 36 -72 119 -114 160 -54 53
-154 111 -228 131 -47 14 -56 20 -59 41 -13 116 -76 257 -151 341 -134 149
-351 221 -564 186 -53 -9 -154 -43 -176 -61 -12 -9 -13 -7 -7 14 31 103 34
207 7 266 -10 22 -36 55 -57 72 -57 47 -110 61 -219 59 l-93 -2 -21 105 c-11
58 -23 128 -27 155 -3 28 -8 53 -10 56 -14 24 -22 318 -10 419 16 142 35 184
89 196 17 3 38 10 47 15 8 5 92 38 185 74 94 36 179 70 190 75 11 5 108 43
215 85 107 42 204 80 215 85 11 5 52 21 90 35 39 15 79 30 90 35 64 29 249 99
252 96 2 -2 -63 -41 -144 -88 -456 -260 -1069 -612 -1072 -615 -9 -7 52 -62
128 -116 161 -117 317 -177 545 -213 116 -18 351 -5 508 26 331 68 628 230
878 480 167 167 236 267 394 573 141 272 197 422 182 483 -17 65 -278 163
-556 209 -19 3 -57 10 -85 15 -130 24 -289 45 -430 57 -155 12 -549 4 -575
-12 -3 -2 -32 -6 -64 -10 -73 -7 -259 -55 -349 -89 -368 -140 -625 -406 -731
-759 -29 -95 -36 -133 -38 -193 0 -33 -6 -47 -22 -58 -19 -12 -24 -11 -45 5
-13 11 -19 23 -15 30 12 20 5 168 -11 257 -49 262 -194 476 -428 633 -224 150
-534 252 -862 284 -33 4 -71 9 -85 11 -50 10 -557 13 -625 3z"/>
</g>
</svg>
